Coordinates
version=1
nRows=5
nColumns=40
inDegrees=yes

Units are S.I. units (second, meters, Newtons, ...)
If the header above contains a line with 'inDegrees', this indicates whether rotational values are in degrees (yes) or radians (no).

endheader
time	pelvis_tilt	pelvis_list	pelvis_rotation	pelvis_tx	pelvis_ty	pelvis_tz	hip_flexion_r	hip_adduction_r	hip_rotation_r	knee_angle_r	knee_angle_r_beta	ankle_angle_r	subtalar_angle_r	mtp_angle_r	hip_flexion_l	hip_adduction_l	hip_rotation_l	knee_angle_l	knee_angle_l_beta	ankle_angle_l	subtalar_angle_l	mtp_angle_l	lumbar_extension	lumbar_bending	lumbar_rotation	arm_flex_r	arm_add_r	arm_rot_r	elbow_flex_r	pro_sup_r	wrist_flex_r	wrist_dev_r	arm_flex_l	arm_add_l	arm_rot_l	elbow_flex_l	pro_sup_l	wrist_flex_l	wrist_dev_l
      2.53333333	      9.60520690	      4.70738384	      0.65781389	     -0.20940345	      0.89386883	     -0.33129142	     12.20815401	    -12.44537003	     -6.67293903	     60.84348839	      1.06191920	      8.92487077	      0.00000000	      0.00000000	     -2.28618282	      9.19748414	     -1.54330656	     17.74456152	      0.30970102	     22.01194211	      0.00000000	      0.00000000	    -20.78737618	     -1.39657549	     -2.77128315	      0.00000000	    -10.51562144	      0.00000000	     74.93971491	     45.08599942	      0.00000000	      0.00000000	      0.00000000	    -10.51562144	      0.00000000	     74.93971491	     45.08599942	      0.00000000	      0.00000000
      2.54000000	      9.46347425	      4.59970666	      0.85868818	     -0.20186590	      0.89398198	     -0.33227783	     13.01620617	    -12.30362513	     -7.04876343	     59.83454118	      1.04430975	      9.12162265	      0.00000000	      0.00000000	     -2.78491345	      9.12459838	     -1.48239385	     17.59412062	      0.30707533	     22.05994736	      0.00000000	      0.00000000	    -20.68409637	     -1.29681149	     -2.80912656	      0.00000000	    -10.51829197	      0.00000000	     74.93978532	     45.08572160	      0.00000000	      0.00000000	      0.00000000	    -10.51829197	      0.00000000	     74.93978532	     45.08572160	      0.00000000	      0.00000000
      2.54666667	      9.40901387	      4.29041937	      1.14908908	     -0.19424453	      0.89423158	     -0.33330886	     13.58507066	    -11.90918428	     -7.56632880	     58.56624456	      1.02217380	      9.58820648	      0.00000000	      0.00000000	     -3.44329304	      8.83494466	     -1.23311738	     17.32877906	      0.30244425	     22.19202367	      0.00000000	      0.00000000	    -20.63369517	     -0.81897303	     -2.98683642	      0.00000000	    -10.52382795	      0.00000000	     74.93993115	     45.08514801	      0.00000000	      0.00000000	      0.00000000	    -10.52382795	      0.00000000	     74.93993115	     45.08514801	      0.00000000	      0.00000000
      2.55333333	      9.55597740	      3.98502368	      1.43382236	     -0.18668728	      0.89459639	     -0.33419518	     13.85501007	    -11.53197522	     -8.16757586	     57.12154345	      0.99695901	     10.56857590	      0.00000000	      0.00000000	     -4.28453108	      8.48915027	     -1.16432746	     17.12072010	      0.29881294	     22.50172430	      0.00000000	      0.00000000	    -20.98370108	     -0.42591736	     -3.41469761	      0.00000000	    -10.53796219	      0.00000000	     74.94030273	     45.08369759	      0.00000000	      0.00000000	      0.00000000	    -10.53796219	      0.00000000	     74.94030273	     45.08369759	      0.00000000	      0.00000000
      2.56000000	      9.46277140	      3.82531162	      1.68562899	     -0.17910620	      0.89458089	     -0.33513733	     14.41936480	    -11.33447111	     -8.62357122	     55.61943093	      0.97074220	     10.99141091	      0.00000000	      0.00000000	     -4.85208676	      8.34490309	     -1.03784354	     16.92536425	      0.29540333	     22.65872252	      0.00000000	      0.00000000	    -20.91021215	     -0.12573692	     -3.60655485	      0.00000000	    -10.54599540	      0.00000000	     74.94051342	     45.08288224	      0.00000000	      0.00000000	      0.00000000	    -10.54599540	      0.00000000	     74.94051342	     45.08288224	      0.00000000	      0.00000000
